999
DXF file: cube_gantry.dxf
999
Pro/ENGINEER 2022073 by Parametric Technology Corporation
  0
SECTION
  2
HEADER
  9
$ACADVER
  1
AC1012
  9
$DWGCODEPAGE
  3
ANSI_1252
  9
$EXTMAX
 10
22.0
 20
17.0
 30
0.0
  9
$EXTMIN
 10
0.0
 20
0.0
 30
0.0
  9
$LIMMIN
 10
0.0
 20
0.0
  9
$LIMMAX
 10
22.0
 20
17.0
  9
$VIEWCTR
 10
11.0
 20
8.5
  9
$VIEWSIZE
 40
17.0
  9
$CLAYER
  8
0
  9
$LTSCALE
 40
1.21
  9
$CELTYPE
  6
BYLAYER
  9
$DIMSCALE
 40
1.0
  9
$DIMASZ
 40
0.1875
  9
$DIMEXO
 40
0.0625
  9
$DIMDLI
 40
0.836
  9
$DIMEXE
 40
0.125
  9
$DIMCEN
 40
0.198
  9
$DIMLFAC
 40
1.0
  9
$DIMBLK
  1
_FILLED
  9
$DIMALT
 70
0
  9
$DIMALTF
 40
25.4
  9
$DIMTXT
 40
0.15625
  9
$DIMTOL
 70
0
  9
$DIMLIM
 70
0
  9
$DIMTFAC
 40
1.0
  9
$DIMGAP
 40
0.09
  9
$AUNITS
 70
0
  9
$PDMODE
 70
3
  9
$PDSIZE
 40
0.3125
  9
$HANDSEED
  5
281
  9
$TILEMODE
 70
1
  0
ENDSEC
  0
SECTION
  2
CLASSES
  0
ENDSEC
  0
SECTION
  2
TABLES
  0
TABLE
  2
VPORT
  5
8
100
AcDbSymbolTable
 70
2
  0
VPORT
  5
1F4
100
AcDbSymbolTableRecord
100
AcDbViewportTableRecord
  2
*ACTIVE
 70
0
 10
0.0
 20
0.0
 11
1.0
 21
1.0
 12
11.0
 22
8.5
 13
0.0
 23
0.0
 14
1.0
 24
1.0
 15
0.0
 25
0.0
 16
0.0
 26
0.0
 36
1.0
 17
0.0
 27
0.0
 37
0.0
 40
17.0
 41
1.2941176471
 42
50.0
 43
0.0
 44
0.0
 50
0.0
 51
0.0
 71
0
 72
100
 73
1
 74
1
 75
0
 76
0
 77
0
 78
0
  0
ENDTAB
  0
TABLE
  2
LTYPE
  5
5
100
AcDbSymbolTable
 70
6
  0
LTYPE
  5
14
100
AcDbSymbolTableRecord
100
AcDbLinetypeTableRecord
  2
BYBLOCK
 70
0
  3

 72
65
 73
0
 40
0.0
  0
LTYPE
  5
15
100
AcDbSymbolTableRecord
100
AcDbLinetypeTableRecord
  2
BYLAYER
 70
0
  3

 72
65
 73
0
 40
0.0
  0
LTYPE
  5
16
100
AcDbSymbolTableRecord
100
AcDbLinetypeTableRecord
  2
CONTINUOUS
 70
64
  3
Solid line
 72
65
 73
0
 40
0.0
  0
LTYPE
  5
1F5
100
AcDbSymbolTableRecord
100
AcDbLinetypeTableRecord
  2
CENTER
 70
64
  3
____ _ ____ _ ____ _ ____ _ ____ _ ____ _ ____
 72
65
 73
4
 40
0.6
 49
0.375
 74
0
 49
-0.075
 74
0
 49
0.075
 74
0
 49
-0.075
 74
0
  0
LTYPE
  5
1F6
100
AcDbSymbolTableRecord
100
AcDbLinetypeTableRecord
  2
HIDDEN
 70
64
  3
- - - - - - - - - - - - - - - - - - - -
 72
65
 73
2
 40
0.2
 49
0.1
 74
0
 49
-0.1
 74
0
  0
LTYPE
  5
1F7
100
AcDbSymbolTableRecord
100
AcDbLinetypeTableRecord
  2
PHANTOM
 70
64
  3
_____ _ _ _____ _ _ _____ _ _ _____
 72
65
 73
6
 40
0.8
 49
0.45
 74
0
 49
-0.05
 74
0
 49
0.1
 74
0
 49
-0.05
 74
0
 49
0.1
 74
0
 49
-0.05
 74
0
  0
LTYPE
  5
1F8
100
AcDbSymbolTableRecord
100
AcDbLinetypeTableRecord
  2
DOT
 70
64
  3
. . . . . . . . . . . . . . . . . . . .
 72
65
 73
2
 40
0.2
 49
0.1
 74
0
 49
-0.1
 74
0
  0
LTYPE
  5
1F9
100
AcDbSymbolTableRecord
100
AcDbLinetypeTableRecord
  2
DASHED
 70
64
  3
- - - - - - - - - - - - - - - - - - - -
 72
65
 73
2
 40
0.2
 49
0.1
 74
0
 49
-0.1
 74
0
  0
ENDTAB
  0
TABLE
  2
LAYER
  5
2
100
AcDbSymbolTable
 70
36
  0
LAYER
  5
10
100
AcDbSymbolTableRecord
100
AcDbLayerTableRecord
  2
0
 70
0
 62
7
  6
CONTINUOUS
  0
LAYER
  5
1FA
100
AcDbSymbolTableRecord
100
AcDbLayerTableRecord
  2
DEFAULT_1
 70
0
 62
7
  6
CENTER
  0
LAYER
  5
1FB
100
AcDbSymbolTableRecord
100
AcDbLayerTableRecord
  2
DEFAULT_2
 70
0
 62
8
  6
HIDDEN
  0
LAYER
  5
1FC
100
AcDbSymbolTableRecord
100
AcDbLayerTableRecord
  2
DEFAULT_3
 70
0
 62
7
  6
PHANTOM
  0
LAYER
  5
1FD
100
AcDbSymbolTableRecord
100
AcDbLayerTableRecord
  2
01___PRT_ALL_DTM_PLN
 70
0
 62
7
  6
CONTINUOUS
  0
LAYER
  5
1FE
100
AcDbSymbolTableRecord
100
AcDbLayerTableRecord
  2
01___PRT_DEF_DTM_PLN
 70
0
 62
7
  6
CONTINUOUS
  0
LAYER
  5
1FF
100
AcDbSymbolTableRecord
100
AcDbLayerTableRecord
  2
02___PRT_ALL_AXES
 70
0
 62
7
  6
CONTINUOUS
  0
LAYER
  5
200
100
AcDbSymbolTableRecord
100
AcDbLayerTableRecord
  2
03___PRT_ALL_CURVES
 70
0
 62
7
  6
CONTINUOUS
  0
LAYER
  5
201
100
AcDbSymbolTableRecord
100
AcDbLayerTableRecord
  2
04___PRT_ALL_DTM_PNT
 70
0
 62
7
  6
CONTINUOUS
  0
LAYER
  5
202
100
AcDbSymbolTableRecord
100
AcDbLayerTableRecord
  2
05___PRT_ALL_DTM_CSYS
 70
0
 62
7
  6
CONTINUOUS
  0
LAYER
  5
203
100
AcDbSymbolTableRecord
100
AcDbLayerTableRecord
  2
05___PRT_DEF_DTM_CSYS
 70
0
 62
7
  6
CONTINUOUS
  0
LAYER
  5
204
100
AcDbSymbolTableRecord
100
AcDbLayerTableRecord
  2
06___PRT_ALL_SURFS
 70
0
 62
7
  6
CONTINUOUS
  0
LAYER
  5
205
100
AcDbSymbolTableRecord
100
AcDbLayerTableRecord
  2
3_ALL_SYMBOLS
 70
0
 62
7
  6
CONTINUOUS
  0
ENDTAB
  0
TABLE
  2
STYLE
  5
3
100
AcDbSymbolTable
 70
1
  0
STYLE
  5
11
100
AcDbSymbolTableRecord
100
AcDbTextStyleTableRecord
  2
STANDARD
 70
0
 40
0.0
 41
1.0
 50
0.0
 71
0
 42
0.2
  3
ar_wgl__.ttf
  4

1001
ACAD
1000
Arial WGL
1071
34
  0
STYLE
  5
206
100
AcDbSymbolTableRecord
100
AcDbTextStyleTableRecord
  2
TEXTSTYLE_1
 70
0
 40
0.0
 41
0.8
 50
0.0
 71
0
 42
0.2
  3
gdt
  4

  0
ENDTAB
  0
TABLE
  2
VIEW
  5
6
100
AcDbSymbolTable
 70
0
  0
ENDTAB
  0
TABLE
  2
UCS
  5
7
100
AcDbSymbolTable
 70
0
  0
ENDTAB
  0
TABLE
  2
APPID
  5
9
100
AcDbSymbolTable
 70
1
  0
APPID
  5
207
100
AcDbSymbolTableRecord
100
AcDbRegAppTableRecord
  2
ACAD
 70
0
  0
ENDTAB
  0
TABLE
  2
BLOCK_RECORD
  5
1
100
AcDbSymbolTable
 70
0
  0
BLOCK_RECORD
  5
1F
100
AcDbSymbolTableRecord
100
AcDbBlockTableRecord
  2
*MODEL_SPACE
  0
BLOCK_RECORD
  5
1B
100
AcDbSymbolTableRecord
100
AcDbBlockTableRecord
  2
*PAPER_SPACE
  0
BLOCK_RECORD
  5
208
100
AcDbSymbolTableRecord
100
AcDbBlockTableRecord
  2
_FILLED
  0
ENDTAB
  0
TABLE
  2
DIMSTYLE
  5
A
100
AcDbSymbolTable
 70
1
  0
DIMSTYLE
105
209
100
AcDbSymbolTableRecord
100
AcDbDimStyleTableRecord
  2
STANDARD
 70
0
  3

  4

  5
_FILLED
  6
_FILLED
  7
_FILLED
 40
1.0
 41
0.1875
 42
0.0625
 43
0.38
 44
0.125
 45
0.0
 46
0.0
 47
0.01
 48
0.01
140
0.15625
141
0.09
142
0.0
143
25.4
144
1.0
145
0.0
146
1.0
147
0.09
 71
0
 72
0
 73
1
 74
1
 75
0
 76
0
 77
0
 78
4
 79
1
170
0
171
1
172
0
173
0
174
0
175
0
176
0
177
0
178
0
270
2
271
2
272
2
273
2
274
2
275
0
280
0
281
0
282
0
283
1
284
4
285
0
286
0
287
3
288
0
340
11
  0
ENDTAB
  0
ENDSEC
  0
SECTION
  2
BLOCKS
  0
BLOCK
  5
20
100
AcDbEntity
  8
0
100
AcDbBlockBegin
  2
*MODEL_SPACE
 70
0
 10
0.0
 20
0.0
 30
0.0
  3
*MODEL_SPACE
  1

  0
ENDBLK
  5
21
100
AcDbEntity
  8
0
100
AcDbBlockEnd
  0
BLOCK
  5
1C
100
AcDbEntity
  8
0
100
AcDbBlockBegin
  2
*PAPER_SPACE
 70
0
 10
0.0
 20
0.0
 30
0.0
  3
*PAPER_SPACE
  1

  0
ENDBLK
  5
1D
100
AcDbEntity
  8
0
100
AcDbBlockEnd
  0
BLOCK
  5
20A
100
AcDbEntity
  8
0
100
AcDbBlockBegin
  2
_FILLED
 70
64
 10
0.0
 20
0.0
  3
_FILLED
  1

  0
SOLID
  5
20B
100
AcDbEntity
  8
0
  6
BYBLOCK
 62
0
100
AcDbTrace
 10
0.0
 20
0.0
 11
-1.0
 21
0.1666666667
 12
-1.0
 22
-0.1666666667
 13
-1.0
 23
-0.1666666667
  0
ENDBLK
  5
20C
100
AcDbEntity
  8
0
  6
BYBLOCK
 62
0
100
AcDbBlockEnd
  0
ENDSEC
  0
SECTION
  2
ENTITIES
  0
LINE
  5
20D
100
AcDbEntity
  8
0
100
AcDbLine
 62
7
  6
CONTINUOUS
 10
0.0
 20
0.0
 11
0.0
 21
17.0
  0
LINE
  5
20E
100
AcDbEntity
  8
0
100
AcDbLine
 62
7
  6
CONTINUOUS
 10
0.0
 20
0.0
 11
22.0
 21
0.0
  0
LINE
  5
20F
100
AcDbEntity
  8
0
100
AcDbLine
 62
7
  6
CONTINUOUS
 10
0.0
 20
17.0
 11
22.0
 21
17.0
  0
LINE
  5
210
100
AcDbEntity
  8
0
100
AcDbLine
 62
7
  6
CONTINUOUS
 10
22.0
 20
0.0
 11
22.0
 21
17.0
  0
LINE
  5
211
100
AcDbEntity
  8
0
100
AcDbLine
 62
7
  6
CONTINUOUS
 10
5.0211737276
 20
7.892342033
 11
5.0211737276
 21
8.892342033
  0
LINE
  5
212
100
AcDbEntity
  8
0
100
AcDbLine
 62
7
  6
CONTINUOUS
 10
17.0211737276
 20
7.892342033
 11
5.0211737276
 21
7.892342033
  0
LINE
  5
213
100
AcDbEntity
  8
0
100
AcDbLine
 62
7
  6
CONTINUOUS
 10
17.0211737276
 20
8.892342033
 11
5.0211737276
 21
8.892342033
  0
LINE
  5
214
100
AcDbEntity
  8
0
100
AcDbLine
 62
7
  6
CONTINUOUS
 10
17.0211737276
 20
7.892342033
 11
17.0211737276
 21
8.892342033
  0
LINE
  5
215
100
AcDbEntity
  8
0
100
AcDbLine
 62
7
  6
CONTINUOUS
 10
5.0211737276
 20
10.1793666859
 11
5.0211737276
 21
10.5543666859
  0
LINE
  5
216
100
AcDbEntity
  8
02___PRT_ALL_AXES
100
AcDbLine
 62
8
  6
HIDDEN
 10
5.9798351449
 20
10.5543666859
 11
5.9798351449
 21
10.1793666859
  0
LINE
  5
217
100
AcDbEntity
  8
02___PRT_ALL_AXES
100
AcDbLine
 62
8
  6
HIDDEN
 10
6.1570004992
 20
10.5543666859
 11
6.1570004992
 21
10.1793666859
  0
LINE
  5
218
100
AcDbEntity
  8
02___PRT_ALL_AXES
100
AcDbLine
 62
8
  6
HIDDEN
 10
6.1707800268
 20
10.5543666859
 11
6.1707800268
 21
10.1793666859
  0
LINE
  5
219
100
AcDbEntity
  8
02___PRT_ALL_AXES
100
AcDbLine
 62
8
  6
HIDDEN
 10
6.5172367197
 20
10.5543666859
 11
6.5172367197
 21
10.1793666859
  0
LINE
  5
21A
100
AcDbEntity
  8
02___PRT_ALL_AXES
100
AcDbLine
 62
8
  6
HIDDEN
 10
7.0192052237
 20
10.5543666859
 11
7.0192052237
 21
10.1793666859
  0
LINE
  5
21B
100
AcDbEntity
  8
02___PRT_ALL_AXES
100
AcDbLine
 62
8
  6
HIDDEN
 10
7.196370578
 20
10.5543666859
 11
7.196370578
 21
10.1793666859
  0
LINE
  5
21C
100
AcDbEntity
  8
02___PRT_ALL_AXES
100
AcDbLine
 62
8
  6
HIDDEN
 10
7.2101501055
 20
10.5543666859
 11
7.2101501055
 21
10.1793666859
  0
LINE
  5
21D
100
AcDbEntity
  8
02___PRT_ALL_AXES
100
AcDbLine
 62
8
  6
HIDDEN
 10
7.5566067985
 20
10.5543666859
 11
7.5566067985
 21
10.1793666859
  0
LINE
  5
21E
100
AcDbEntity
  8
02___PRT_ALL_AXES
100
AcDbLine
 62
8
  6
HIDDEN
 10
8.0585753024
 20
10.5543666859
 11
8.0585753024
 21
10.1793666859
  0
LINE
  5
21F
100
AcDbEntity
  8
02___PRT_ALL_AXES
100
AcDbLine
 62
8
  6
HIDDEN
 10
8.2357406567
 20
10.5543666859
 11
8.2357406567
 21
10.1793666859
  0
LINE
  5
220
100
AcDbEntity
  8
02___PRT_ALL_AXES
100
AcDbLine
 62
8
  6
HIDDEN
 10
8.2495201843
 20
10.5543666859
 11
8.2495201843
 21
10.1793666859
  0
LINE
  5
221
100
AcDbEntity
  8
02___PRT_ALL_AXES
100
AcDbLine
 62
8
  6
HIDDEN
 10
8.5959768772
 20
10.5543666859
 11
8.5959768772
 21
10.1793666859
  0
LINE
  5
222
100
AcDbEntity
  8
02___PRT_ALL_AXES
100
AcDbLine
 62
8
  6
HIDDEN
 10
9.0979453811
 20
10.5543666859
 11
9.0979453811
 21
10.1793666859
  0
LINE
  5
223
100
AcDbEntity
  8
02___PRT_ALL_AXES
100
AcDbLine
 62
8
  6
HIDDEN
 10
9.2751107355
 20
10.5543666859
 11
9.2751107355
 21
10.1793666859
  0
LINE
  5
224
100
AcDbEntity
  8
02___PRT_ALL_AXES
100
AcDbLine
 62
8
  6
HIDDEN
 10
9.288890263
 20
10.5543666859
 11
9.288890263
 21
10.1793666859
  0
LINE
  5
225
100
AcDbEntity
  8
02___PRT_ALL_AXES
100
AcDbLine
 62
8
  6
HIDDEN
 10
9.6353469559
 20
10.5543666859
 11
9.6353469559
 21
10.1793666859
  0
LINE
  5
226
100
AcDbEntity
  8
02___PRT_ALL_AXES
100
AcDbLine
 62
8
  6
HIDDEN
 10
10.1373154599
 20
10.5543666859
 11
10.1373154599
 21
10.1793666859
  0
LINE
  5
227
100
AcDbEntity
  8
02___PRT_ALL_AXES
100
AcDbLine
 62
8
  6
HIDDEN
 10
10.3144808142
 20
10.5543666859
 11
10.3144808142
 21
10.1793666859
  0
LINE
  5
228
100
AcDbEntity
  8
02___PRT_ALL_AXES
100
AcDbLine
 62
8
  6
HIDDEN
 10
10.3282603418
 20
10.5543666859
 11
10.3282603418
 21
10.1793666859
  0
LINE
  5
229
100
AcDbEntity
  8
02___PRT_ALL_AXES
100
AcDbLine
 62
8
  6
HIDDEN
 10
10.6747170347
 20
10.5543666859
 11
10.6747170347
 21
10.1793666859
  0
LINE
  5
22A
100
AcDbEntity
  8
02___PRT_ALL_AXES
100
AcDbLine
 62
8
  6
HIDDEN
 10
15.8715674284
 20
10.1793666859
 11
15.5251107355
 21
10.1793666859
  0
LINE
  5
22B
100
AcDbEntity
  8
02___PRT_ALL_AXES
100
AcDbLine
 62
8
  6
HIDDEN
 10
15.5113312079
 20
10.1793666859
 11
15.3341658536
 21
10.1793666859
  0
LINE
  5
22C
100
AcDbEntity
  8
02___PRT_ALL_AXES
100
AcDbLine
 62
8
  6
HIDDEN
 10
14.8321973496
 20
10.1793666859
 11
14.4857406567
 21
10.1793666859
  0
LINE
  5
22D
100
AcDbEntity
  8
02___PRT_ALL_AXES
100
AcDbLine
 62
8
  6
HIDDEN
 10
14.4719611292
 20
10.1793666859
 11
14.2947957748
 21
10.1793666859
  0
LINE
  5
22E
100
AcDbEntity
  8
02___PRT_ALL_AXES
100
AcDbLine
 62
8
  6
HIDDEN
 10
13.7928272709
 20
10.1793666859
 11
13.446370578
 21
10.1793666859
  0
LINE
  5
22F
100
AcDbEntity
  8
02___PRT_ALL_AXES
100
AcDbLine
 62
8
  6
HIDDEN
 10
13.4325910504
 20
10.1793666859
 11
13.2554256961
 21
10.1793666859
  0
LINE
  5
230
100
AcDbEntity
  8
02___PRT_ALL_AXES
100
AcDbLine
 62
8
  6
HIDDEN
 10
12.7534571922
 20
10.1793666859
 11
12.4070004992
 21
10.1793666859
  0
LINE
  5
231
100
AcDbEntity
  8
02___PRT_ALL_AXES
100
AcDbLine
 62
8
  6
HIDDEN
 10
12.3932209717
 20
10.1793666859
 11
12.2160556174
 21
10.1793666859
  0
LINE
  5
232
100
AcDbEntity
  8
02___PRT_ALL_AXES
100
AcDbLine
 62
8
  6
HIDDEN
 10
11.7140871134
 20
10.1793666859
 11
11.3676304205
 21
10.1793666859
  0
LINE
  5
233
100
AcDbEntity
  8
02___PRT_ALL_AXES
100
AcDbLine
 62
8
  6
HIDDEN
 10
11.3538508929
 20
10.1793666859
 11
11.1766855386
 21
10.1793666859
  0
LINE
  5
234
100
AcDbEntity
  8
02___PRT_ALL_AXES
100
AcDbLine
 62
8
  6
HIDDEN
 10
10.6747170347
 20
10.1793666859
 11
10.3282603418
 21
10.1793666859
  0
LINE
  5
235
100
AcDbEntity
  8
02___PRT_ALL_AXES
100
AcDbLine
 62
8
  6
HIDDEN
 10
10.3144808142
 20
10.1793666859
 11
10.1373154599
 21
10.1793666859
  0
LINE
  5
236
100
AcDbEntity
  8
02___PRT_ALL_AXES
100
AcDbLine
 62
8
  6
HIDDEN
 10
9.6353469559
 20
10.1793666859
 11
9.288890263
 21
10.1793666859
  0
LINE
  5
237
100
AcDbEntity
  8
02___PRT_ALL_AXES
100
AcDbLine
 62
8
  6
HIDDEN
 10
9.2751107355
 20
10.1793666859
 11
9.0979453811
 21
10.1793666859
  0
LINE
  5
238
100
AcDbEntity
  8
02___PRT_ALL_AXES
100
AcDbLine
 62
8
  6
HIDDEN
 10
8.5959768772
 20
10.1793666859
 11
8.2495201843
 21
10.1793666859
  0
LINE
  5
239
100
AcDbEntity
  8
02___PRT_ALL_AXES
100
AcDbLine
 62
8
  6
HIDDEN
 10
8.2357406567
 20
10.1793666859
 11
8.0585753024
 21
10.1793666859
  0
LINE
  5
23A
100
AcDbEntity
  8
02___PRT_ALL_AXES
100
AcDbLine
 62
8
  6
HIDDEN
 10
7.5566067985
 20
10.1793666859
 11
7.2101501055
 21
10.1793666859
  0
LINE
  5
23B
100
AcDbEntity
  8
02___PRT_ALL_AXES
100
AcDbLine
 62
8
  6
HIDDEN
 10
7.196370578
 20
10.1793666859
 11
7.0192052237
 21
10.1793666859
  0
LINE
  5
23C
100
AcDbEntity
  8
02___PRT_ALL_AXES
100
AcDbLine
 62
8
  6
HIDDEN
 10
6.5172367197
 20
10.1793666859
 11
6.1707800268
 21
10.1793666859
  0
LINE
  5
23D
100
AcDbEntity
  8
02___PRT_ALL_AXES
100
AcDbLine
 62
8
  6
HIDDEN
 10
6.1570004992
 20
10.1793666859
 11
5.9798351449
 21
10.1793666859
  0
LINE
  5
23E
100
AcDbEntity
  8
0
100
AcDbLine
 62
7
  6
CONTINUOUS
 10
17.0211737276
 20
10.1793666859
 11
5.0211737276
 21
10.1793666859
  0
LINE
  5
23F
100
AcDbEntity
  8
02___PRT_ALL_AXES
100
AcDbLine
 62
8
  6
HIDDEN
 10
11.1766855386
 20
10.5543666859
 11
11.1766855386
 21
10.1793666859
  0
LINE
  5
240
100
AcDbEntity
  8
02___PRT_ALL_AXES
100
AcDbLine
 62
8
  6
HIDDEN
 10
11.3538508929
 20
10.5543666859
 11
11.3538508929
 21
10.1793666859
  0
LINE
  5
241
100
AcDbEntity
  8
02___PRT_ALL_AXES
100
AcDbLine
 62
8
  6
HIDDEN
 10
11.3676304205
 20
10.5543666859
 11
11.3676304205
 21
10.1793666859
  0
LINE
  5
242
100
AcDbEntity
  8
02___PRT_ALL_AXES
100
AcDbLine
 62
8
  6
HIDDEN
 10
15.8715674284
 20
10.5543666859
 11
15.5251107355
 21
10.5543666859
  0
LINE
  5
243
100
AcDbEntity
  8
02___PRT_ALL_AXES
100
AcDbLine
 62
8
  6
HIDDEN
 10
15.5113312079
 20
10.5543666859
 11
15.3341658536
 21
10.5543666859
  0
LINE
  5
244
100
AcDbEntity
  8
02___PRT_ALL_AXES
100
AcDbLine
 62
8
  6
HIDDEN
 10
14.8321973496
 20
10.5543666859
 11
14.4857406567
 21
10.5543666859
  0
LINE
  5
245
100
AcDbEntity
  8
02___PRT_ALL_AXES
100
AcDbLine
 62
8
  6
HIDDEN
 10
14.4719611292
 20
10.5543666859
 11
14.2947957748
 21
10.5543666859
  0
LINE
  5
246
100
AcDbEntity
  8
02___PRT_ALL_AXES
100
AcDbLine
 62
8
  6
HIDDEN
 10
13.7928272709
 20
10.5543666859
 11
13.446370578
 21
10.5543666859
  0
LINE
  5
247
100
AcDbEntity
  8
02___PRT_ALL_AXES
100
AcDbLine
 62
8
  6
HIDDEN
 10
13.4325910504
 20
10.5543666859
 11
13.2554256961
 21
10.5543666859
  0
LINE
  5
248
100
AcDbEntity
  8
02___PRT_ALL_AXES
100
AcDbLine
 62
8
  6
HIDDEN
 10
12.7534571922
 20
10.5543666859
 11
12.4070004992
 21
10.5543666859
  0
LINE
  5
249
100
AcDbEntity
  8
02___PRT_ALL_AXES
100
AcDbLine
 62
8
  6
HIDDEN
 10
12.3932209717
 20
10.5543666859
 11
12.2160556174
 21
10.5543666859
  0
LINE
  5
24A
100
AcDbEntity
  8
02___PRT_ALL_AXES
100
AcDbLine
 62
8
  6
HIDDEN
 10
11.7140871134
 20
10.5543666859
 11
11.3676304205
 21
10.5543666859
  0
LINE
  5
24B
100
AcDbEntity
  8
02___PRT_ALL_AXES
100
AcDbLine
 62
8
  6
HIDDEN
 10
11.3538508929
 20
10.5543666859
 11
11.1766855386
 21
10.5543666859
  0
LINE
  5
24C
100
AcDbEntity
  8
02___PRT_ALL_AXES
100
AcDbLine
 62
8
  6
HIDDEN
 10
10.6747170347
 20
10.5543666859
 11
10.3282603418
 21
10.5543666859
  0
LINE
  5
24D
100
AcDbEntity
  8
02___PRT_ALL_AXES
100
AcDbLine
 62
8
  6
HIDDEN
 10
10.3144808142
 20
10.5543666859
 11
10.1373154599
 21
10.5543666859
  0
LINE
  5
24E
100
AcDbEntity
  8
02___PRT_ALL_AXES
100
AcDbLine
 62
8
  6
HIDDEN
 10
9.6353469559
 20
10.5543666859
 11
9.288890263
 21
10.5543666859
  0
LINE
  5
24F
100
AcDbEntity
  8
02___PRT_ALL_AXES
100
AcDbLine
 62
8
  6
HIDDEN
 10
9.2751107355
 20
10.5543666859
 11
9.0979453811
 21
10.5543666859
  0
LINE
  5
250
100
AcDbEntity
  8
02___PRT_ALL_AXES
100
AcDbLine
 62
8
  6
HIDDEN
 10
8.5959768772
 20
10.5543666859
 11
8.2495201843
 21
10.5543666859
  0
LINE
  5
251
100
AcDbEntity
  8
02___PRT_ALL_AXES
100
AcDbLine
 62
8
  6
HIDDEN
 10
8.2357406567
 20
10.5543666859
 11
8.0585753024
 21
10.5543666859
  0
LINE
  5
252
100
AcDbEntity
  8
02___PRT_ALL_AXES
100
AcDbLine
 62
8
  6
HIDDEN
 10
7.5566067985
 20
10.5543666859
 11
7.2101501055
 21
10.5543666859
  0
LINE
  5
253
100
AcDbEntity
  8
02___PRT_ALL_AXES
100
AcDbLine
 62
8
  6
HIDDEN
 10
7.196370578
 20
10.5543666859
 11
7.0192052237
 21
10.5543666859
  0
LINE
  5
254
100
AcDbEntity
  8
02___PRT_ALL_AXES
100
AcDbLine
 62
8
  6
HIDDEN
 10
6.5172367197
 20
10.5543666859
 11
6.1707800268
 21
10.5543666859
  0
LINE
  5
255
100
AcDbEntity
  8
02___PRT_ALL_AXES
100
AcDbLine
 62
8
  6
HIDDEN
 10
6.1570004992
 20
10.5543666859
 11
5.9798351449
 21
10.5543666859
  0
LINE
  5
256
100
AcDbEntity
  8
0
100
AcDbLine
 62
7
  6
CONTINUOUS
 10
17.0211737276
 20
10.5543666859
 11
5.0211737276
 21
10.5543666859
  0
LINE
  5
257
100
AcDbEntity
  8
02___PRT_ALL_AXES
100
AcDbLine
 62
8
  6
HIDDEN
 10
11.7140871134
 20
10.5543666859
 11
11.7140871134
 21
10.1793666859
  0
LINE
  5
258
100
AcDbEntity
  8
02___PRT_ALL_AXES
100
AcDbLine
 62
8
  6
HIDDEN
 10
12.2160556174
 20
10.5543666859
 11
12.2160556174
 21
10.1793666859
  0
LINE
  5
259
100
AcDbEntity
  8
02___PRT_ALL_AXES
100
AcDbLine
 62
8
  6
HIDDEN
 10
12.3932209717
 20
10.5543666859
 11
12.3932209717
 21
10.1793666859
  0
LINE
  5
25A
100
AcDbEntity
  8
02___PRT_ALL_AXES
100
AcDbLine
 62
8
  6
HIDDEN
 10
12.4070004992
 20
10.5543666859
 11
12.4070004992
 21
10.1793666859
  0
LINE
  5
25B
100
AcDbEntity
  8
02___PRT_ALL_AXES
100
AcDbLine
 62
8
  6
HIDDEN
 10
12.7534571922
 20
10.5543666859
 11
12.7534571922
 21
10.1793666859
  0
LINE
  5
25C
100
AcDbEntity
  8
02___PRT_ALL_AXES
100
AcDbLine
 62
8
  6
HIDDEN
 10
13.2554256961
 20
10.5543666859
 11
13.2554256961
 21
10.1793666859
  0
LINE
  5
25D
100
AcDbEntity
  8
02___PRT_ALL_AXES
100
AcDbLine
 62
8
  6
HIDDEN
 10
13.4325910504
 20
10.5543666859
 11
13.4325910504
 21
10.1793666859
  0
LINE
  5
25E
100
AcDbEntity
  8
02___PRT_ALL_AXES
100
AcDbLine
 62
8
  6
HIDDEN
 10
13.446370578
 20
10.5543666859
 11
13.446370578
 21
10.1793666859
  0
LINE
  5
25F
100
AcDbEntity
  8
02___PRT_ALL_AXES
100
AcDbLine
 62
8
  6
HIDDEN
 10
13.7928272709
 20
10.5543666859
 11
13.7928272709
 21
10.1793666859
  0
LINE
  5
260
100
AcDbEntity
  8
02___PRT_ALL_AXES
100
AcDbLine
 62
8
  6
HIDDEN
 10
14.2947957748
 20
10.5543666859
 11
14.2947957748
 21
10.1793666859
  0
LINE
  5
261
100
AcDbEntity
  8
02___PRT_ALL_AXES
100
AcDbLine
 62
8
  6
HIDDEN
 10
14.4719611292
 20
10.5543666859
 11
14.4719611292
 21
10.1793666859
  0
LINE
  5
262
100
AcDbEntity
  8
02___PRT_ALL_AXES
100
AcDbLine
 62
8
  6
HIDDEN
 10
14.4857406567
 20
10.5543666859
 11
14.4857406567
 21
10.1793666859
  0
LINE
  5
263
100
AcDbEntity
  8
02___PRT_ALL_AXES
100
AcDbLine
 62
8
  6
HIDDEN
 10
14.8321973496
 20
10.5543666859
 11
14.8321973496
 21
10.1793666859
  0
LINE
  5
264
100
AcDbEntity
  8
02___PRT_ALL_AXES
100
AcDbLine
 62
8
  6
HIDDEN
 10
15.3341658536
 20
10.5543666859
 11
15.3341658536
 21
10.1793666859
  0
LINE
  5
265
100
AcDbEntity
  8
02___PRT_ALL_AXES
100
AcDbLine
 62
8
  6
HIDDEN
 10
15.5113312079
 20
10.5543666859
 11
15.5113312079
 21
10.1793666859
  0
LINE
  5
266
100
AcDbEntity
  8
02___PRT_ALL_AXES
100
AcDbLine
 62
8
  6
HIDDEN
 10
15.5251107355
 20
10.5543666859
 11
15.5251107355
 21
10.1793666859
  0
LINE
  5
267
100
AcDbEntity
  8
02___PRT_ALL_AXES
100
AcDbLine
 62
8
  6
HIDDEN
 10
15.8715674284
 20
10.5543666859
 11
15.8715674284
 21
10.1793666859
  0
LINE
  5
268
100
AcDbEntity
  8
0
100
AcDbLine
 62
7
  6
CONTINUOUS
 10
17.0211737276
 20
10.1793666859
 11
17.0211737276
 21
10.5543666859
  0
CIRCLE
  5
269
100
AcDbEntity
  8
02___PRT_ALL_AXES
100
AcDbCircle
 62
7
  6
CONTINUOUS
 10
6.0684178221
 20
8.1167514818
 40
0.0885826772
  0
CIRCLE
  5
26A
100
AcDbEntity
  8
02___PRT_ALL_AXES
100
AcDbCircle
 62
7
  6
CONTINUOUS
 10
7.1077879008
 20
8.1167514818
 40
0.0885826772
  0
CIRCLE
  5
26B
100
AcDbEntity
  8
02___PRT_ALL_AXES
100
AcDbCircle
 62
7
  6
CONTINUOUS
 10
8.1471579796
 20
8.1167514818
 40
0.0885826772
  0
CIRCLE
  5
26C
100
AcDbEntity
  8
02___PRT_ALL_AXES
100
AcDbCircle
 62
7
  6
CONTINUOUS
 10
9.1865280583
 20
8.1167514818
 40
0.0885826772
  0
CIRCLE
  5
26D
100
AcDbEntity
  8
02___PRT_ALL_AXES
100
AcDbCircle
 62
7
  6
CONTINUOUS
 10
10.225898137
 20
8.1167514818
 40
0.0885826772
  0
CIRCLE
  5
26E
100
AcDbEntity
  8
02___PRT_ALL_AXES
100
AcDbCircle
 62
7
  6
CONTINUOUS
 10
6.3440083733
 20
8.392342033
 40
0.1732283465
  0
CIRCLE
  5
26F
100
AcDbEntity
  8
02___PRT_ALL_AXES
100
AcDbCircle
 62
7
  6
CONTINUOUS
 10
7.383378452
 20
8.392342033
 40
0.1732283465
  0
CIRCLE
  5
270
100
AcDbEntity
  8
02___PRT_ALL_AXES
100
AcDbCircle
 62
7
  6
CONTINUOUS
 10
8.4227485307
 20
8.392342033
 40
0.1732283465
  0
CIRCLE
  5
271
100
AcDbEntity
  8
02___PRT_ALL_AXES
100
AcDbCircle
 62
7
  6
CONTINUOUS
 10
9.4621186095
 20
8.392342033
 40
0.1732283465
  0
CIRCLE
  5
272
100
AcDbEntity
  8
02___PRT_ALL_AXES
100
AcDbCircle
 62
7
  6
CONTINUOUS
 10
10.5014886882
 20
8.392342033
 40
0.1732283465
  0
CIRCLE
  5
273
100
AcDbEntity
  8
02___PRT_ALL_AXES
100
AcDbCircle
 62
7
  6
CONTINUOUS
 10
11.2652682158
 20
8.1167514818
 40
0.0885826772
  0
CIRCLE
  5
274
100
AcDbEntity
  8
02___PRT_ALL_AXES
100
AcDbCircle
 62
7
  6
CONTINUOUS
 10
12.3046382945
 20
8.1167514818
 40
0.0885826772
  0
CIRCLE
  5
275
100
AcDbEntity
  8
02___PRT_ALL_AXES
100
AcDbCircle
 62
7
  6
CONTINUOUS
 10
13.3440083733
 20
8.1167514818
 40
0.0885826772
  0
CIRCLE
  5
276
100
AcDbEntity
  8
02___PRT_ALL_AXES
100
AcDbCircle
 62
7
  6
CONTINUOUS
 10
14.383378452
 20
8.1167514818
 40
0.0885826772
  0
CIRCLE
  5
277
100
AcDbEntity
  8
02___PRT_ALL_AXES
100
AcDbCircle
 62
7
  6
CONTINUOUS
 10
15.4227485307
 20
8.1167514818
 40
0.0885826772
  0
CIRCLE
  5
278
100
AcDbEntity
  8
02___PRT_ALL_AXES
100
AcDbCircle
 62
7
  6
CONTINUOUS
 10
11.540858767
 20
8.392342033
 40
0.1732283465
  0
CIRCLE
  5
279
100
AcDbEntity
  8
02___PRT_ALL_AXES
100
AcDbCircle
 62
7
  6
CONTINUOUS
 10
12.5802288457
 20
8.392342033
 40
0.1732283465
  0
CIRCLE
  5
27A
100
AcDbEntity
  8
02___PRT_ALL_AXES
100
AcDbCircle
 62
7
  6
CONTINUOUS
 10
13.6195989244
 20
8.392342033
 40
0.1732283465
  0
CIRCLE
  5
27B
100
AcDbEntity
  8
02___PRT_ALL_AXES
100
AcDbCircle
 62
7
  6
CONTINUOUS
 10
14.6589690032
 20
8.392342033
 40
0.1732283465
  0
CIRCLE
  5
27C
100
AcDbEntity
  8
02___PRT_ALL_AXES
100
AcDbCircle
 62
7
  6
CONTINUOUS
 10
15.6983390819
 20
8.392342033
 40
0.1732283465
  0
ENDSEC
  0
SECTION
  2
OBJECTS
  0
DICTIONARY
  5
27D
100
AcDbDictionary
  3
ACAD_GROUP
350
27E
  3
ACAD_MLINESTYLE
350
27F
  0
DICTIONARY
  5
27E
102
{ACAD_REACTORS
330
27D
102
}
100
AcDbDictionary
  0
DICTIONARY
  5
27F
102
{ACAD_REACTORS
330
27D
102
}
100
AcDbDictionary
  3
STANDARD
350
280
  0
MLINESTYLE
  5
280
102
{ACAD_REACTORS
330
27F
102
}
100
AcDbMlineStyle
  2
STANDARD
 70
0
  3

 62
256
 51
90.0
 52
90.0
 71
2
 49
0.5
 62
256
  6
BYLAYER
 49
-0.5
 62
256
  6
BYLAYER
  0
ENDSEC
  0
EOF
